<?xml version="1.0" encoding="UTF-8" standalone="no"?>
<!-- Created with Inkscape (http://www.inkscape.org/) -->

<svg
   width="44.46051mm"
   height="44.942532mm"
   viewBox="0 0 44.46051 44.942532"
   version="1.1"
   id="svg5"
   xml:space="preserve"
   sodipodi:docname="wrench.svg"
   inkscape:version="1.2.1 (9c6d41e410, 2022-07-14)"
   inkscape:export-filename="wrench.png"
   inkscape:export-xdpi="96"
   inkscape:export-ydpi="96"
   xmlns:inkscape="http://www.inkscape.org/namespaces/inkscape"
   xmlns:sodipodi="http://sodipodi.sourceforge.net/DTD/sodipodi-0.dtd"
   xmlns="http://www.w3.org/2000/svg"
   xmlns:svg="http://www.w3.org/2000/svg"><sodipodi:namedview
     id="namedview7"
     pagecolor="#ffffff"
     bordercolor="#000000"
     borderopacity="0.25"
     inkscape:showpageshadow="2"
     inkscape:pageopacity="0.0"
     inkscape:pagecheckerboard="0"
     inkscape:deskcolor="#d1d1d1"
     inkscape:document-units="mm"
     showgrid="false"
     inkscape:zoom="5.1754899"
     inkscape:cx="75.838231"
     inkscape:cy="87.721164"
     inkscape:window-width="2560"
     inkscape:window-height="1369"
     inkscape:window-x="-8"
     inkscape:window-y="-8"
     inkscape:window-maximized="1"
     inkscape:current-layer="layer1" /><defs
     id="defs2" /><g
     inkscape:label="Calque 1"
     inkscape:groupmode="layer"
     id="layer1"
     transform="translate(-88.292402,-186.38591)"><path
       style="fill:none;fill-opacity:1;stroke:#ffffff;stroke-width:0.8;stroke-linecap:butt;stroke-linejoin:round;stroke-dasharray:none;stroke-opacity:1"
       d="m 133.00764,231.82719 -14.14812,-18.4424 c -1.48239,-1.74897 -2.47945,-3.99501 -0.4601,-8.17958 0.78968,-2.4811 1.25707,-4.53239 -0.54117,-7.97509 -1.79824,-3.4427 -8.13144,-9.67592 -9.93892,-10.07111 -4.19453,-0.9171 -5.11223,0.76683 -5.11223,0.76683 l 4.65213,10.68458 c -1.38245,4.09567 -4.39249,5.68734 -7.514988,7.10601 l -4.772988,-11.13955 c -2.081918,-1.1904 -4.282599,-0.75703 -5.604854,0.0971 v 2e-5 c -2.034356,7.01354 0.425852,15.12953 1.891527,17.43273 1.465675,2.3032 10.383003,5.16601 11.421463,6.40013 3.75328,4.46045 7.29358,8.99197 10.65062,13.32033"
       id="path7058"
       sodipodi:nodetypes="ccczscccccczsc" /><path
       style="fill:none;fill-opacity:1;stroke:#ffffff;stroke-width:0.4;stroke-linecap:butt;stroke-linejoin:round;stroke-dasharray:none;stroke-opacity:1"
       d="m 96.962146,213.59115 c 0,0 4.216164,1.70199 7.119944,3.2321 5.58833,2.9447 12.69051,14.85298 12.82884,15.07175"
       id="path7060"
       sodipodi:nodetypes="csc" /><path
       style="fill:none;fill-opacity:1;stroke:#ffffff;stroke-width:0.4;stroke-linecap:butt;stroke-linejoin:round;stroke-dasharray:none;stroke-opacity:1"
       d="m 118.09269,205.92092 c -3.54227,9.19128 -17.10359,10.55468 -21.650331,7.38719 -2.717867,-1.89341 -3.270492,-10.83434 -2.313196,-17.73022 0.05836,-0.42043 0.569611,-0.61592 0.817867,-0.94224"
       id="path7062"
       sodipodi:nodetypes="cssc" /><path
       style="fill:none;fill-opacity:1;stroke:#ffffff;stroke-width:0.4;stroke-linecap:round;stroke-linejoin:round;stroke-dasharray:none;stroke-opacity:1"
       d="m 99.90694,205.9124 c 7.60672,0.92282 10.42803,-2.42473 12.30538,-6.54444 0,0 -1.58651,-7.49244 -4.03738,-10.29186 -0.55993,-0.63956 -1.4231,-1.00184 -2.24938,-1.20137 -0.99402,-0.24004 -3.06734,0.0511 -3.06734,0.0511"
       id="path7064"
       sodipodi:nodetypes="ccssc" /><path
       style="fill:none;fill-opacity:1;stroke:#ffffff;stroke-width:0.4;stroke-linecap:butt;stroke-linejoin:round;stroke-dasharray:none;stroke-opacity:1"
       d="m 107.45923,198.78935 4.54989,0.76684"
       id="path7066"
       sodipodi:nodetypes="cc" /><path
       style="fill:none;fill-opacity:1;stroke:#ffffff;stroke-width:0.4;stroke-linecap:butt;stroke-linejoin:round;stroke-dasharray:none;stroke-opacity:1"
       d="m 120.33801,231.86642 c -1.95535,-2.71748 -4.38027,-7.33275 -3.10688,-9.65866 1.60602,-2.93346 10.05501,6.82075 11.7954,9.71537"
       id="path7068"
       sodipodi:nodetypes="csc" /></g></svg>
